<svg xmlns="http://www.w3.org/2000/svg" width="1920" height="1080"><path d="M-2,1443L-159,1494L1042,1440Z" fill="#38393c" stroke="#38393c" stroke-width="1.51"/><path d="M1042,1440L-159,1494L1536,1461Z" fill="#3b3d40" stroke="#3b3d40" stroke-width="1.51"/><path d="M1536,1461L-159,1494L2035,1481Z" fill="#3d3f43" stroke="#3d3f43" stroke-width="1.51"/><path d="M1807,236L1764,403L2237,153Z" fill="#37393c" stroke="#37393c" stroke-width="1.51"/><path d="M1764,403L1791,555L2237,153Z" fill="#383a3d" stroke="#383a3d" stroke-width="1.51"/><path d="M1309,-412L1834,-324L2258,-361Z" fill="#303134" stroke="#303134" stroke-width="1.51"/><path d="M2237,153L1791,555L2317,660Z" fill="#3a3c3f" stroke="#3a3c3f" stroke-width="1.51"/><path d="M2031,870L2284,899L2317,660Z" fill="#3e4044" stroke="#3e4044" stroke-width="1.51"/><path d="M2284,899L2285,1153L2317,660Z" fill="#404245" stroke="#404245" stroke-width="1.51"/><path d="M2258,-361L1808,-102L2333,-11Z" fill="#343639" stroke="#343639" stroke-width="1.51"/><path d="M1808,-102L2237,153L2333,-11Z" fill="#36383b" stroke="#36383b" stroke-width="1.51"/><path d="M2237,153L2317,660L2333,-11Z" fill="#393b3e" stroke="#393b3e" stroke-width="1.51"/><path d="M1834,-324L1808,-102L2258,-361Z" fill="#323336" stroke="#323336" stroke-width="1.51"/><path d="M2284,899L2031,870L2285,1153Z" fill="#404246" stroke="#404246" stroke-width="1.51"/><path d="M1791,555L2031,870L2317,660Z" fill="#3c3e41" stroke="#3c3e41" stroke-width="1.51"/><path d="M1906,1109L2217,1385L2285,1153Z" fill="#424448" stroke="#424448" stroke-width="1.51"/><path d="M2031,870L1906,1109L2285,1153Z" fill="#404246" stroke="#404246" stroke-width="1.51"/><path d="M1906,1109L2035,1481L2217,1385Z" fill="#434548" stroke="#434548" stroke-width="1.51"/><path d="M1808,-102L1807,236L2237,153Z" fill="#35373a" stroke="#35373a" stroke-width="1.51"/><path d="M1708,149L1807,236L1808,-102Z" fill="#343539" stroke="#343539" stroke-width="1.51"/><path d="M1791,555L1551,839L2031,870Z" fill="#3b3d40" stroke="#3b3d40" stroke-width="1.51"/><path d="M1906,1109L1666,1129L2035,1481Z" fill="#404246" stroke="#404246" stroke-width="1.51"/><path d="M1666,1129L1536,1461L2035,1481Z" fill="#414347" stroke="#414347" stroke-width="1.51"/><path d="M1551,839L1906,1109L2031,870Z" fill="#3d3f42" stroke="#3d3f42" stroke-width="1.51"/><path d="M1699,-60L1708,149L1808,-102Z" fill="#333437" stroke="#333437" stroke-width="1.51"/><path d="M1551,839L1666,1129L1906,1109Z" fill="#3e3f42" stroke="#3e3f42" stroke-width="1.51"/><path d="M1495,643L1551,839L1791,555Z" fill="#393a3d" stroke="#393a3d" stroke-width="1.51"/><path d="M1699,-60L1808,-102L1834,-324Z" fill="#323336" stroke="#323336" stroke-width="1.51"/><path d="M1528,-212L1699,-60L1834,-324Z" fill="#303235" stroke="#303235" stroke-width="1.51"/><path d="M1309,-412L1528,-212L1834,-324Z" fill="#2e3033" stroke="#2e3033" stroke-width="1.51"/><path d="M1708,149L1764,403L1807,236Z" fill="#35373a" stroke="#35373a" stroke-width="1.51"/><path d="M1764,403L1495,643L1791,555Z" fill="#38393d" stroke="#38393d" stroke-width="1.51"/><path d="M1708,149L1484,146L1764,403Z" fill="#353639" stroke="#353639" stroke-width="1.51"/><path d="M1484,146L1495,643L1764,403Z" fill="#36373a" stroke="#36373a" stroke-width="1.51"/><path d="M1395,1209L1536,1461L1666,1129Z" fill="#3e4044" stroke="#3e4044" stroke-width="1.51"/><path d="M1699,-60L1484,146L1708,149Z" fill="#333437" stroke="#333437" stroke-width="1.51"/><path d="M1528,-212L1484,146L1699,-60Z" fill="#313336" stroke="#313336" stroke-width="1.51"/><path d="M1551,839L1395,1209L1666,1129Z" fill="#3c3e41" stroke="#3c3e41" stroke-width="1.51"/><path d="M1484,146L1166,559L1495,643Z" fill="#353739" stroke="#353739" stroke-width="1.51"/><path d="M1288,-23L1484,146L1528,-212Z" fill="#313235" stroke="#313235" stroke-width="1.51"/><path d="M1274,1361L1042,1440L1536,1461Z" fill="#3e4043" stroke="#3e4043" stroke-width="1.51"/><path d="M1395,1209L1274,1361L1536,1461Z" fill="#3e4043" stroke="#3e4043" stroke-width="1.51"/><path d="M1495,643L1246,822L1551,839Z" fill="#393a3d" stroke="#393a3d" stroke-width="1.51"/><path d="M1246,822L1395,1209L1551,839Z" fill="#3a3c3f" stroke="#3a3c3f" stroke-width="1.51"/><path d="M1309,-412L1288,-23L1528,-212Z" fill="#2e2f32" stroke="#2e2f32" stroke-width="1.51"/><path d="M1288,-23L999,138L1484,146Z" fill="#303235" stroke="#303235" stroke-width="1.51"/><path d="M999,138L1166,559L1484,146Z" fill="#323336" stroke="#323336" stroke-width="1.51"/><path d="M1166,559L1246,822L1495,643Z" fill="#37383b" stroke="#37383b" stroke-width="1.51"/><path d="M160,-374L463,-292L981,-412Z" fill="#27282a" stroke="#27282a" stroke-width="1.51"/><path d="M502,1279L-2,1443L1042,1440Z" fill="#393a3d" stroke="#393a3d" stroke-width="1.51"/><path d="M1072,1213L1274,1361L1395,1209Z" fill="#3c3e41" stroke="#3c3e41" stroke-width="1.51"/><path d="M1246,822L1072,1213L1395,1209Z" fill="#3a3c3f" stroke="#3a3c3f" stroke-width="1.51"/><path d="M981,-412L880,-203L1024,9Z" fill="#2b2c2f" stroke="#2b2c2f" stroke-width="1.51"/><path d="M969,925L1072,1213L1246,822Z" fill="#383a3d" stroke="#383a3d" stroke-width="1.51"/><path d="M981,-412L1024,9L1288,-23Z" fill="#2d2e31" stroke="#2d2e31" stroke-width="1.51"/><path d="M1024,9L999,138L1288,-23Z" fill="#2f3033" stroke="#2f3033" stroke-width="1.51"/><path d="M981,-412L1288,-23L1309,-412Z" fill="#2c2e30" stroke="#2c2e30" stroke-width="1.51"/><path d="M1072,1213L1042,1440L1274,1361Z" fill="#3c3e41" stroke="#3c3e41" stroke-width="1.51"/><path d="M1166,559L943,901L1246,822Z" fill="#36383b" stroke="#36383b" stroke-width="1.51"/><path d="M943,901L969,925L1246,822Z" fill="#37393c" stroke="#37393c" stroke-width="1.51"/><path d="M880,-203L935,-26L1024,9Z" fill="#2d2e30" stroke="#2d2e30" stroke-width="1.51"/><path d="M999,138L766,571L1166,559Z" fill="#323336" stroke="#323336" stroke-width="1.51"/><path d="M766,571L943,901L1166,559Z" fill="#343538" stroke="#343538" stroke-width="1.51"/><path d="M689,154L766,571L999,138Z" fill="#2f3033" stroke="#2f3033" stroke-width="1.51"/><path d="M758,1261L502,1279L1042,1440Z" fill="#393b3e" stroke="#393b3e" stroke-width="1.51"/><path d="M969,925L769,965L1072,1213Z" fill="#38393c" stroke="#38393c" stroke-width="1.51"/><path d="M769,965L758,1261L1072,1213Z" fill="#383a3d" stroke="#383a3d" stroke-width="1.51"/><path d="M758,1261L1042,1440L1072,1213Z" fill="#3b3c3f" stroke="#3b3c3f" stroke-width="1.51"/><path d="M935,-26L999,138L1024,9Z" fill="#2e2f32" stroke="#2e2f32" stroke-width="1.51"/><path d="M766,571L635,692L943,901Z" fill="#333538" stroke="#333538" stroke-width="1.51"/><path d="M935,-26L689,154L999,138Z" fill="#2e2f32" stroke="#2e2f32" stroke-width="1.51"/><path d="M689,154L572,261L766,571Z" fill="#2f3033" stroke="#2f3033" stroke-width="1.51"/><path d="M635,692L769,965L943,901Z" fill="#343639" stroke="#343639" stroke-width="1.51"/><path d="M943,901L769,965L969,925Z" fill="#36383b" stroke="#36383b" stroke-width="1.51"/><path d="M463,-292L880,-203L981,-412Z" fill="#292a2d" stroke="#292a2d" stroke-width="1.51"/><path d="M880,-203L689,154L935,-26Z" fill="#2c2e30" stroke="#2c2e30" stroke-width="1.51"/><path d="M477,-17L689,154L880,-203Z" fill="#2b2c2f" stroke="#2b2c2f" stroke-width="1.51"/><path d="M463,-292L477,-17L880,-203Z" fill="#292a2d" stroke="#292a2d" stroke-width="1.51"/><path d="M560,1068L502,1279L758,1261Z" fill="#37383c" stroke="#37383c" stroke-width="1.51"/><path d="M572,261L519,603L766,571Z" fill="#303134" stroke="#303134" stroke-width="1.51"/><path d="M560,1068L758,1261L769,965Z" fill="#36383b" stroke="#36383b" stroke-width="1.51"/><path d="M635,692L560,1068L769,965Z" fill="#343639" stroke="#343639" stroke-width="1.51"/><path d="M519,603L635,692L766,571Z" fill="#313335" stroke="#313335" stroke-width="1.51"/><path d="M330,723L560,1068L635,692Z" fill="#333437" stroke="#333437" stroke-width="1.51"/><path d="M477,-17L572,261L689,154Z" fill="#2c2d30" stroke="#2c2d30" stroke-width="1.51"/><path d="M378,1229L-2,1443L502,1279Z" fill="#36383b" stroke="#36383b" stroke-width="1.51"/><path d="M357,212L519,603L572,261Z" fill="#2d2f31" stroke="#2d2f31" stroke-width="1.51"/><path d="M477,-17L357,212L572,261Z" fill="#2b2c2f" stroke="#2b2c2f" stroke-width="1.51"/><path d="M519,603L330,723L635,692Z" fill="#313235" stroke="#313235" stroke-width="1.51"/><path d="M359,1168L378,1229L502,1279Z" fill="#36383b" stroke="#36383b" stroke-width="1.51"/><path d="M357,212L240,668L519,603Z" fill="#2e2f32" stroke="#2e2f32" stroke-width="1.51"/><path d="M359,1168L502,1279L560,1068Z" fill="#36373a" stroke="#36373a" stroke-width="1.51"/><path d="M330,723L359,1168L560,1068Z" fill="#333538" stroke="#333538" stroke-width="1.51"/><path d="M112,276L240,668L357,212Z" fill="#2c2d30" stroke="#2c2d30" stroke-width="1.51"/><path d="M463,-292L121,-243L477,-17Z" fill="#27292b" stroke="#27292b" stroke-width="1.51"/><path d="M240,668L330,723L519,603Z" fill="#303134" stroke="#303134" stroke-width="1.51"/><path d="M200,94L357,212L477,-17Z" fill="#2a2c2e" stroke="#2a2c2e" stroke-width="1.51"/><path d="M121,-243L200,94L477,-17Z" fill="#28292c" stroke="#28292c" stroke-width="1.51"/><path d="M160,-374L121,-243L463,-292Z" fill="#252629" stroke="#252629" stroke-width="1.51"/><path d="M240,668L-25,1163L330,723Z" fill="#303235" stroke="#303235" stroke-width="1.51"/><path d="M330,723L-25,1163L359,1168Z" fill="#333437" stroke="#333437" stroke-width="1.51"/><path d="M359,1168L-25,1163L378,1229Z" fill="#343639" stroke="#343639" stroke-width="1.51"/><path d="M-25,1163L-2,1443L378,1229Z" fill="#343639" stroke="#343639" stroke-width="1.51"/><path d="M-124,735L-25,1163L240,668Z" fill="#2f3133" stroke="#2f3133" stroke-width="1.51"/><path d="M200,94L112,276L357,212Z" fill="#2a2b2e" stroke="#2a2b2e" stroke-width="1.51"/><path d="M121,-243L-5,-75L200,94Z" fill="#27282a" stroke="#27282a" stroke-width="1.51"/><path d="M112,276L-100,519L240,668Z" fill="#2c2d30" stroke="#2c2d30" stroke-width="1.51"/><path d="M-100,519L-124,735L240,668Z" fill="#2d2e31" stroke="#2d2e31" stroke-width="1.51"/><path d="M-5,-75L112,276L200,94Z" fill="#28292c" stroke="#28292c" stroke-width="1.51"/><path d="M-5,-75L-227,89L112,276Z" fill="#27282b" stroke="#27282b" stroke-width="1.51"/><path d="M-182,-282L121,-243L160,-374Z" fill="#242527" stroke="#242527" stroke-width="1.51"/><path d="M-124,735L-270,829L-25,1163Z" fill="#2f3033" stroke="#2f3033" stroke-width="1.51"/><path d="M-182,-282L-5,-75L121,-243Z" fill="#242528" stroke="#242528" stroke-width="1.51"/><path d="M-227,89L-100,519L112,276Z" fill="#292a2d" stroke="#292a2d" stroke-width="1.51"/><path d="M-227,89L-322,155L-100,519Z" fill="#28292b" stroke="#28292b" stroke-width="1.51"/><path d="M-270,829L-192,1161L-25,1163Z" fill="#303135" stroke="#303135" stroke-width="1.51"/><path d="M-25,1163L-192,1161L-2,1443Z" fill="#333537" stroke="#333537" stroke-width="1.51"/><path d="M-192,1161L-159,1494L-2,1443Z" fill="#343538" stroke="#343538" stroke-width="1.51"/><path d="M-182,-282L-227,89L-5,-75Z" fill="#252628" stroke="#252628" stroke-width="1.51"/><path d="M-322,155L-335,620L-100,519Z" fill="#292a2d" stroke="#292a2d" stroke-width="1.51"/><path d="M-335,620L-124,735L-100,519Z" fill="#2c2d2f" stroke="#2c2d2f" stroke-width="1.51"/><path d="M-335,620L-270,829L-124,735Z" fill="#2c2d30" stroke="#2c2d30" stroke-width="1.51"/><path d="M-322,155L-227,89L-182,-282Z" fill="#252628" stroke="#252628" stroke-width="1.51"/><path d="M-192,1161L-270,829L-159,1494Z" fill="#313335" stroke="#313335" stroke-width="1.51"/><path d="M-270,829L-335,620L-159,1494Z" fill="#2f3033" stroke="#2f3033" stroke-width="1.51"/></svg>